<?xml version="1.0" encoding="UTF-8" standalone="no"?>
<!-- Created with Inkscape (http://www.inkscape.org/) -->

<svg
   xmlns:dc="http://purl.org/dc/elements/1.1/"
   xmlns:cc="http://creativecommons.org/ns#"
   xmlns:rdf="http://www.w3.org/1999/02/22-rdf-syntax-ns#"
   xmlns:svg="http://www.w3.org/2000/svg"
   xmlns="http://www.w3.org/2000/svg"
   xmlns:xlink="http://www.w3.org/1999/xlink"
   xmlns:sodipodi="http://sodipodi.sourceforge.net/DTD/sodipodi-0.dtd"
   xmlns:inkscape="http://www.inkscape.org/namespaces/inkscape"
   width="136.46667mm"
   height="123.7738mm"
   viewBox="0 0 136.46667 123.7738"
   version="1.1"
   id="svg8"
   inkscape:version="0.92.3 (unknown)"
   sodipodi:docname="Presentation_Sketch.svg">
  <defs
     id="defs2">
    <linearGradient
       inkscape:collect="always"
       id="linearGradient1549">
      <stop
         style="stop-color:#00ffff;stop-opacity:1;"
         offset="0"
         id="stop1545" />
      <stop
         style="stop-color:#0000ff;stop-opacity:1"
         offset="1"
         id="stop1547" />
    </linearGradient>
    <marker
       inkscape:isstock="true"
       style="overflow:visible"
       id="marker1203"
       refX="0"
       refY="0"
       orient="auto"
       inkscape:stockid="Arrow1Mend">
      <path
         transform="matrix(-0.4,0,0,-0.4,-4,0)"
         style="fill:#000000;fill-opacity:1;fill-rule:evenodd;stroke:#000000;stroke-width:1.00000003pt;stroke-opacity:1"
         d="M 0,0 5,-5 -12.5,0 5,5 Z"
         id="path1201"
         inkscape:connector-curvature="0" />
    </marker>
    <marker
       inkscape:isstock="true"
       style="overflow:visible"
       id="marker1161"
       refX="0"
       refY="0"
       orient="auto"
       inkscape:stockid="Arrow1Mend">
      <path
         transform="matrix(-0.4,0,0,-0.4,-4,0)"
         style="fill:#000000;fill-opacity:1;fill-rule:evenodd;stroke:#000000;stroke-width:1.00000003pt;stroke-opacity:1"
         d="M 0,0 5,-5 -12.5,0 5,5 Z"
         id="path1159"
         inkscape:connector-curvature="0" />
    </marker>
    <marker
       inkscape:stockid="Arrow1Mend"
       orient="auto"
       refY="0"
       refX="0"
       id="Arrow1Mend"
       style="overflow:visible"
       inkscape:isstock="true"
       inkscape:collect="always">
      <path
         id="path886"
         d="M 0,0 5,-5 -12.5,0 5,5 Z"
         style="fill:#000000;fill-opacity:1;fill-rule:evenodd;stroke:#000000;stroke-width:1.00000003pt;stroke-opacity:1"
         transform="matrix(-0.4,0,0,-0.4,-4,0)"
         inkscape:connector-curvature="0" />
    </marker>
    <linearGradient
       inkscape:collect="always"
       xlink:href="#linearGradient1549"
       id="linearGradient1551"
       x1="110.06667"
       y1="56.543625"
       x2="156.63333"
       y2="56.543625"
       gradientUnits="userSpaceOnUse"
       gradientTransform="matrix(-1,0,0,1,187.325,-6.1349189)" />
  </defs>
  <sodipodi:namedview
     id="base"
     pagecolor="#ffffff"
     bordercolor="#666666"
     borderopacity="1.0"
     inkscape:pageopacity="0.0"
     inkscape:pageshadow="2"
     inkscape:zoom="0.98994949"
     inkscape:cx="178.13901"
     inkscape:cy="177.16472"
     inkscape:document-units="mm"
     inkscape:current-layer="layer1"
     showgrid="true"
     inkscape:window-width="1600"
     inkscape:window-height="848"
     inkscape:window-x="0"
     inkscape:window-y="0"
     inkscape:window-maximized="1"
     inkscape:snap-bbox="true"
     inkscape:snap-bbox-midpoints="true"
     fit-margin-top="0"
     fit-margin-left="0"
     fit-margin-right="0"
     fit-margin-bottom="0">
    <inkscape:grid
       type="xygrid"
       id="grid836"
       empspacing="4"
       originx="-29.133333"
       originy="-147.66666" />
  </sodipodi:namedview>
  <metadata
     id="metadata5">
    <rdf:RDF>
      <cc:Work
         rdf:about="">
        <dc:format>image/svg+xml</dc:format>
        <dc:type
           rdf:resource="http://purl.org/dc/dcmitype/StillImage" />
        <dc:title></dc:title>
      </cc:Work>
    </rdf:RDF>
  </metadata>
  <g
     inkscape:label="Layer 1"
     inkscape:groupmode="layer"
     id="layer1"
     transform="translate(-29.133333,-25.559545)">
    <rect
       style="opacity:0.5;vector-effect:none;fill:#00ffff;fill-opacity:1;fill-rule:evenodd;stroke:#000000;stroke-width:1;stroke-linecap:round;stroke-linejoin:round;stroke-miterlimit:4;stroke-dasharray:none;stroke-dashoffset:0;stroke-opacity:1"
       id="rect1555"
       width="135.46667"
       height="114.30001"
       x="29.633333"
       y="34.533333"
       rx="21.166674"
       ry="21.166674" />
    <rect
       ry="8.586422"
       rx="10.942458"
       y="98.133331"
       x="85.634132"
       height="46.366673"
       width="70.031715"
       id="rect1571"
       style="opacity:1;vector-effect:none;fill:#ff0000;fill-opacity:1;fill-rule:evenodd;stroke:none;stroke-width:1;stroke-linecap:round;stroke-linejoin:round;stroke-miterlimit:4;stroke-dasharray:none;stroke-dashoffset:0;stroke-opacity:1" />
    <g
       id="g1189"
       style="stroke-width:1;stroke-miterlimit:4;stroke-dasharray:none">
      <circle
         r="8.4666662"
         cy="59.933331"
         cx="93.133331"
         id="path838"
         style="opacity:1;vector-effect:none;fill:none;fill-opacity:1;fill-rule:evenodd;stroke:#000000;stroke-width:1;stroke-linecap:round;stroke-linejoin:round;stroke-miterlimit:4;stroke-dasharray:none;stroke-dashoffset:0;stroke-opacity:1" />
      <circle
         r="8.4666662"
         cy="49.350002"
         cx="93.133331"
         id="path840"
         style="opacity:1;vector-effect:none;fill:none;fill-opacity:1;fill-rule:evenodd;stroke:#000000;stroke-width:1;stroke-linecap:round;stroke-linejoin:round;stroke-miterlimit:4;stroke-dasharray:none;stroke-dashoffset:0;stroke-opacity:1" />
    </g>
    <path
       style="opacity:1;vector-effect:none;fill:none;fill-opacity:1;fill-rule:evenodd;stroke:#000000;stroke-width:1;stroke-linecap:round;stroke-linejoin:round;stroke-miterlimit:4;stroke-dasharray:none;stroke-dashoffset:0;stroke-opacity:1"
       d="M 93.133332,68.4 V 93.8"
       id="path842"
       inkscape:connector-curvature="0"
       sodipodi:nodetypes="cc" />
    <path
       style="opacity:1;vector-effect:none;fill:none;fill-opacity:1;fill-rule:evenodd;stroke:#000000;stroke-width:1;stroke-linecap:round;stroke-linejoin:round;stroke-miterlimit:4;stroke-dasharray:none;stroke-dashoffset:0;stroke-opacity:1"
       d="m 71.966667,93.8 h 88.899993 v 42.33333"
       id="path844"
       inkscape:connector-curvature="0"
       sodipodi:nodetypes="ccc" />
    <path
       style="opacity:1;vector-effect:none;fill:none;fill-opacity:1;fill-rule:evenodd;stroke:#000000;stroke-width:1;stroke-linecap:round;stroke-linejoin:round;stroke-miterlimit:4;stroke-dasharray:none;stroke-dashoffset:0;stroke-opacity:1"
       d="M 160.86667,136.13333 H 101.6"
       id="path846"
       inkscape:connector-curvature="0"
       sodipodi:nodetypes="cc" />
    <path
       style="opacity:1;vector-effect:none;fill:none;fill-opacity:1;fill-rule:evenodd;stroke:#000000;stroke-width:1;stroke-linecap:round;stroke-linejoin:round;stroke-miterlimit:4;stroke-dasharray:none;stroke-dashoffset:0;stroke-opacity:1;marker-end:url(#Arrow1Mend)"
       d="m 101.6,136.13333 v -8.46666"
       id="path856"
       inkscape:connector-curvature="0" />
    <g
       id="g865"
       transform="translate(8.4666653)"
       style="fill:#ffffff;stroke-width:1;stroke-miterlimit:4;stroke-dasharray:none">
      <path
         inkscape:connector-curvature="0"
         id="path854"
         d="m 80.433332,114.81617 12.7,-12.70001 12.699998,12.70001"
         style="opacity:1;vector-effect:none;fill:#ffffff;fill-opacity:1;fill-rule:evenodd;stroke:#000000;stroke-width:1;stroke-linecap:round;stroke-linejoin:round;stroke-miterlimit:4;stroke-dasharray:none;stroke-dashoffset:0;stroke-opacity:1" />
      <path
         inkscape:connector-curvature="0"
         id="path858"
         d="m 84.666666,112.85 v 12.7 h 10.583333 v -8.46667 h 4.233333 V 125.55 H 101.6 v -12.7"
         style="opacity:1;vector-effect:none;fill:#ffffff;fill-opacity:1;fill-rule:evenodd;stroke:#000000;stroke-width:1;stroke-linecap:round;stroke-linejoin:round;stroke-miterlimit:4;stroke-dasharray:none;stroke-dashoffset:0;stroke-opacity:1" />
      <path
         inkscape:connector-curvature="0"
         id="path860"
         d="m 86.783332,117.08333 h 4.233334 v 4.23334 h -4.233334 z"
         style="opacity:1;vector-effect:none;fill:#008080;fill-opacity:1;fill-rule:evenodd;stroke:#000000;stroke-width:1;stroke-linecap:round;stroke-linejoin:round;stroke-miterlimit:4;stroke-dasharray:none;stroke-dashoffset:0;stroke-opacity:1" />
    </g>
    <path
       inkscape:connector-curvature="0"
       id="path867"
       d="m 135.46667,136.13333 v -8.46666"
       style="opacity:1;vector-effect:none;fill:none;fill-opacity:1;fill-rule:evenodd;stroke:#000000;stroke-width:1;stroke-linecap:round;stroke-linejoin:round;stroke-miterlimit:4;stroke-dasharray:none;stroke-dashoffset:0;stroke-opacity:1;marker-end:url(#marker1161)" />
    <g
       id="g875"
       transform="translate(42.333333)"
       style="fill:#ffffff;stroke-width:1;stroke-miterlimit:4;stroke-dasharray:none">
      <path
         style="opacity:1;vector-effect:none;fill:#ffffff;fill-opacity:1;fill-rule:evenodd;stroke:#000000;stroke-width:1;stroke-linecap:round;stroke-linejoin:round;stroke-miterlimit:4;stroke-dasharray:none;stroke-dashoffset:0;stroke-opacity:1"
         d="m 80.433332,114.81617 12.7,-12.70001 12.699998,12.70001"
         id="path869"
         inkscape:connector-curvature="0" />
      <path
         style="opacity:1;vector-effect:none;fill:#ffffff;fill-opacity:1;fill-rule:evenodd;stroke:#000000;stroke-width:1;stroke-linecap:round;stroke-linejoin:round;stroke-miterlimit:4;stroke-dasharray:none;stroke-dashoffset:0;stroke-opacity:1"
         d="m 84.666666,112.85 v 12.7 h 10.583333 v -8.46667 h 4.233333 V 125.55 H 101.6 v -12.7"
         id="path871"
         inkscape:connector-curvature="0" />
      <path
         style="opacity:1;vector-effect:none;fill:#008080;fill-opacity:1;fill-rule:evenodd;stroke:#000000;stroke-width:1;stroke-linecap:round;stroke-linejoin:round;stroke-miterlimit:4;stroke-dasharray:none;stroke-dashoffset:0;stroke-opacity:1"
         d="m 86.783332,117.08333 h 4.233334 v 4.23334 h -4.233334 z"
         id="path873"
         inkscape:connector-curvature="0" />
    </g>
    <path
       inkscape:connector-curvature="0"
       id="path1191"
       d="m 46.566667,136.28383 v -8.46666"
       style="opacity:1;vector-effect:none;fill:none;fill-opacity:1;fill-rule:evenodd;stroke:#000000;stroke-width:1;stroke-linecap:round;stroke-linejoin:round;stroke-miterlimit:4;stroke-dasharray:none;stroke-dashoffset:0;stroke-opacity:1;marker-end:url(#marker1203)" />
    <g
       id="g1199"
       transform="translate(-46.566665,0.15049667)"
       style="fill:#ffffff;stroke-width:1;stroke-miterlimit:4;stroke-dasharray:none">
      <path
         style="opacity:1;vector-effect:none;fill:#ffffff;fill-opacity:1;fill-rule:evenodd;stroke:#000000;stroke-width:1;stroke-linecap:round;stroke-linejoin:round;stroke-miterlimit:4;stroke-dasharray:none;stroke-dashoffset:0;stroke-opacity:1"
         d="m 80.433332,114.81617 12.7,-12.70001 12.699998,12.70001"
         id="path1193"
         inkscape:connector-curvature="0" />
      <path
         style="opacity:1;vector-effect:none;fill:#ffffff;fill-opacity:1;fill-rule:evenodd;stroke:#000000;stroke-width:1;stroke-linecap:round;stroke-linejoin:round;stroke-miterlimit:4;stroke-dasharray:none;stroke-dashoffset:0;stroke-opacity:1"
         d="m 84.666666,112.85 v 12.7 h 10.583333 v -8.46667 h 4.233333 V 125.55 H 101.6 v -12.7"
         id="path1195"
         inkscape:connector-curvature="0" />
      <path
         style="opacity:1;vector-effect:none;fill:#008080;fill-opacity:1;fill-rule:evenodd;stroke:#000000;stroke-width:1;stroke-linecap:round;stroke-linejoin:round;stroke-miterlimit:4;stroke-dasharray:none;stroke-dashoffset:0;stroke-opacity:1"
         d="m 86.783332,117.08333 h 4.233334 v 4.23334 h -4.233334 z"
         id="path1197"
         inkscape:connector-curvature="0" />
    </g>
    <path
       style="opacity:1;vector-effect:none;fill:url(#linearGradient1551);fill-opacity:1;fill-rule:evenodd;stroke:#000080;stroke-width:1;stroke-linecap:round;stroke-linejoin:round;stroke-miterlimit:4;stroke-dasharray:none;stroke-dashoffset:0;stroke-opacity:1"
       d="m 79.374998,64.16704 c 0,0 -16.77845,-4.173415 -23.28333,-4.018625 -6.50488,0.15479 -12.64551,3.705478 -16.93333,4.233333 -4.28782,0.527855 -8.46667,0 -8.46667,0 v -6.35 c 0,0 9.8226,-1.737779 12.7,-4.233333 2.8774,-2.495554 0.88659,-5.119923 4.23333,-8.466667 6.35,-8.466667 19.04999,-8.466668 23.28333,-4.233334 4.23334,4.233334 4.78992,7.130043 2.11667,8.466667 -4.23333,2.116667 -3.00534,-3.765328 -3.00534,-3.765328 0,0 -5.04133,-1.537083 -7.17709,-1.537083 -4.23334,0 -6.7509,3.3068 -6.7509,5.302412 0,1.995612 1.35593,3.041475 4.23333,4.233333 2.8774,1.191858 5.58927,0.924808 8.46667,2.116666 2.8774,1.191858 10.58333,1.901959 10.58333,1.901959 z"
       id="path1535"
       inkscape:connector-curvature="0"
       sodipodi:nodetypes="czzcczczscszzzcc" />
    <path
       style="opacity:1;vector-effect:none;fill:none;fill-opacity:1;fill-rule:evenodd;stroke:#000000;stroke-width:1;stroke-linecap:round;stroke-linejoin:round;stroke-miterlimit:4;stroke-dasharray:none;stroke-dashoffset:0;stroke-opacity:1"
       d="M 93.133332,40.883334 V 26.066666"
       id="path1553"
       inkscape:connector-curvature="0" />
    <path
       style="opacity:1;vector-effect:none;fill:none;fill-opacity:1;fill-rule:evenodd;stroke:#000000;stroke-width:1;stroke-linecap:round;stroke-linejoin:round;stroke-miterlimit:4;stroke-dasharray:none;stroke-dashoffset:0;stroke-opacity:1"
       d="m 46.566666,136.13333 h 25.4 V 93.8"
       id="path1557"
       inkscape:connector-curvature="0"
       sodipodi:nodetypes="ccc" />
    <g
       id="g1607"
       transform="translate(6.16075)"
       style="stroke-width:1;stroke-miterlimit:4;stroke-dasharray:none">
      <ellipse
         ry="3.1428366"
         rx="3.1914413"
         cy="89.29538"
         cx="111.41572"
         id="path1559"
         style="opacity:1;vector-effect:none;fill:#ff0000;fill-opacity:1;fill-rule:evenodd;stroke:#000000;stroke-width:1;stroke-linecap:round;stroke-linejoin:round;stroke-miterlimit:4;stroke-dasharray:none;stroke-dashoffset:0;stroke-opacity:1" />
      <ellipse
         ry="3.1428366"
         rx="3.1914413"
         cy="89.29538"
         cx="120.99005"
         id="path1561"
         style="opacity:1;vector-effect:none;fill:#ff0000;fill-opacity:1;fill-rule:evenodd;stroke:#000000;stroke-width:1;stroke-linecap:round;stroke-linejoin:round;stroke-miterlimit:4;stroke-dasharray:none;stroke-dashoffset:0;stroke-opacity:1" />
      <ellipse
         ry="3.1428366"
         rx="3.1914413"
         cy="89.29538"
         cx="150.24083"
         id="path1563"
         style="opacity:1;vector-effect:none;fill:#ff0000;fill-opacity:1;fill-rule:evenodd;stroke:#000000;stroke-width:1;stroke-linecap:round;stroke-linejoin:round;stroke-miterlimit:4;stroke-dasharray:none;stroke-dashoffset:0;stroke-opacity:1" />
      <rect
         ry="1.2864119e-06"
         rx="1.3856622e-05"
         y="68.085167"
         x="104.2227"
         height="16.060324"
         width="40.015751"
         id="rect1565"
         style="opacity:1;vector-effect:none;fill:#ff0000;fill-opacity:1;fill-rule:evenodd;stroke:#000000;stroke-width:1;stroke-linecap:round;stroke-linejoin:round;stroke-miterlimit:4;stroke-dasharray:none;stroke-dashoffset:0;stroke-opacity:1" />
      <path
         inkscape:connector-curvature="0"
         id="path1567"
         d="m 146.23925,72.100262 h 8.00314 l 4.00157,8.030168 v 4.015081 H 146.23925 V 72.100262"
         style="opacity:1;vector-effect:none;fill:#ff0000;fill-opacity:1;fill-rule:evenodd;stroke:#000000;stroke-width:1;stroke-linecap:round;stroke-linejoin:round;stroke-miterlimit:4;stroke-dasharray:none;stroke-dashoffset:0;stroke-opacity:1" />
      <path
         inkscape:connector-curvature="0"
         id="path1569"
         d="m 146.23925,68.085181 6.50254,3.011313"
         style="opacity:1;vector-effect:none;fill:#ff0000;fill-opacity:1;fill-rule:evenodd;stroke:#000000;stroke-width:1;stroke-linecap:round;stroke-linejoin:round;stroke-miterlimit:4;stroke-dasharray:none;stroke-dashoffset:0;stroke-opacity:1" />
      <path
         inkscape:connector-curvature="0"
         id="path1592"
         d="m 127.37861,84.06568 c -1.08762,-0.152812 -2.06832,-0.65029 -2.82954,-1.435349 l -0.35265,-0.363679 -0.32274,0.329899 c -1.47742,1.510151 -3.7314,1.870835 -5.61421,0.898398 -0.45035,-0.232595 -0.9963,-0.638463 -1.29461,-0.962429 -0.16653,-0.180858 -0.16475,-0.180222 0.0846,0.0302 1.26427,1.066763 2.91548,1.211056 4.32566,0.378002 0.38974,-0.230232 0.98134,-0.829054 1.21753,-1.232377 0.10959,-0.187132 0.26043,-0.515219 0.33521,-0.729084 0.12631,-0.361247 0.13596,-0.442317 0.13594,-1.142232 -2e-5,-0.703512 -0.009,-0.777521 -0.1349,-1.11793 -0.0742,-0.200498 -0.14621,-0.397583 -0.16007,-0.437967 -0.0175,-0.05107 0.0726,-0.130613 0.29592,-0.261263 l 0.32112,-0.187839 0.10747,0.100975 c 0.16102,0.151262 0.4525,0.256858 0.71465,0.258888 0.29156,0.0023 0.40962,-0.03431 0.65641,-0.203308 l 0.19559,-0.133929 0.33044,0.193595 c 0.25962,0.152103 0.3227,0.210883 0.29433,0.274253 -0.0198,0.04436 -0.102,0.266575 -0.18256,0.493806 -0.13346,0.376506 -0.14664,0.469188 -0.1486,1.045021 -0.003,0.734255 0.0671,1.05097 0.36416,1.656608 1.03344,2.107038 3.85028,2.678573 5.61004,1.138273 0.24446,-0.213977 0.12063,-0.04948 -0.16226,0.215543 -0.93201,0.873136 -2.51594,1.372509 -3.78696,1.19393 z m -1.46446,-3.080206 c -0.0602,-0.170345 -0.1245,-0.415711 -0.14303,-0.545259 l -0.0337,-0.235542 0.34758,-0.232468 c 0.88484,-0.591818 1.441,-1.557923 1.51091,-2.624617 l 0.0277,-0.423696 0.30105,-0.10018 c 0.16557,-0.0551 0.41392,-0.113548 0.55187,-0.129888 l 0.25084,-0.02971 v 0.519179 c 0,0.285548 -0.0345,0.687769 -0.0768,0.893823 -0.2596,1.266378 -1.10997,2.409894 -2.26372,3.044069 -0.1741,0.0957 -0.3271,0.174004 -0.33998,0.174004 -0.0129,0 -0.0726,-0.139373 -0.13277,-0.309718 z m -3.8466,0.08756 c -1.46618,-0.774605 -2.43154,-2.419773 -2.37072,-4.040144 l 0.0143,-0.379539 0.26807,0.0085 c 0.14744,0.0047 0.391,0.05455 0.54123,0.110767 l 0.27317,0.102203 0.0328,0.375289 c 0.10245,1.172403 0.67582,2.152752 1.58857,2.716133 0.15912,0.09822 0.28541,0.211176 0.28541,0.255291 0,0.113213 -0.18768,0.775097 -0.25729,0.907372 l -0.0586,0.111457 z m 10.49115,-0.555537 c 0.0181,-0.120299 0.0311,-0.43745 0.0289,-0.704781 -0.0129,-1.596812 -1.09538,-2.985435 -2.67865,-3.436289 -0.53036,-0.151028 -1.33985,-0.149673 -1.8836,0.0032 -0.67578,0.189933 -1.10739,0.449858 -1.64975,0.993523 l -0.48047,0.481618 -0.20001,-0.110454 c -0.40334,-0.222738 -0.39346,-0.207847 -0.39397,-0.593315 -3.9e-4,-0.298369 -0.0215,-0.387409 -0.13839,-0.58643 -0.14033,-0.238739 -0.50391,-0.518738 -0.67358,-0.518738 -0.0772,0 -0.0877,-0.04647 -0.0877,-0.388845 v -0.388845 h 0.13804 c 0.23557,0 0.89077,-0.188235 1.24722,-0.358313 0.93856,-0.447831 1.67086,-1.335449 1.95002,-2.363603 0.11781,-0.433869 0.1177,-1.366276 -1.9e-4,-1.795596 -0.32133,-1.170017 -1.161,-2.112226 -2.23989,-2.513424 -0.40084,-0.149059 -0.27078,-0.142274 0.19882,0.01037 1.52516,0.495759 2.72155,1.779785 3.13422,3.363802 0.22801,0.875213 0.15514,2.099602 -0.1716,2.883051 -0.0263,0.06307 0.0491,0.09635 0.41961,0.185211 0.58998,0.1415 1.41538,0.545441 1.88553,0.922765 1.04181,0.836103 1.68494,2.074107 1.77975,3.425953 0.033,0.470974 -0.0325,1.129934 -0.14861,1.493189 l -0.0686,0.214726 z m -16.75848,-0.157968 c -0.093,-0.374377 -0.12194,-1.435498 -0.0511,-1.876103 0.082,-0.510305 0.34151,-1.213085 0.61928,-1.677298 0.28932,-0.483517 0.93923,-1.175989 1.37658,-1.466733 0.45721,-0.30396 1.06201,-0.576468 1.54852,-0.697735 0.22479,-0.05603 0.41842,-0.111588 0.43029,-0.123462 0.0119,-0.01187 -0.0235,-0.159689 -0.0787,-0.328478 -0.16666,-0.509772 -0.21544,-0.928035 -0.18819,-1.613584 0.0311,-0.781908 0.14316,-1.235014 0.47028,-1.901277 0.54072,-1.101305 1.47326,-1.939879 2.64963,-2.382662 0.43461,-0.163592 0.50925,-0.148338 0.13083,0.02675 -0.96238,0.445243 -1.67807,1.27639 -2.00772,2.331618 -0.16418,0.525513 -0.16421,1.467151 -6e-5,1.99283 0.41834,1.339741 1.48553,2.311879 2.81451,2.563809 l 0.44943,0.0852 1.5e-4,0.372924 1.4e-4,0.372924 -0.16099,0.05313 c -0.1858,0.06132 -0.47121,0.341624 -0.59211,0.581513 -0.0614,0.121775 -0.0785,0.251187 -0.0649,0.491027 l 0.0184,0.325672 -0.31712,0.181346 -0.31712,0.181344 -0.12152,-0.161177 c -1.01406,-1.345109 -2.76317,-1.84804 -4.29081,-1.23377 -0.48061,0.193251 -0.82154,0.424281 -1.23286,0.835412 -0.32572,0.325579 -0.44005,0.483277 -0.64018,0.883052 -0.32918,0.657541 -0.41499,1.062126 -0.38926,1.835211 0.0111,0.332037 0.0174,0.603704 0.0141,0.603704 -0.004,0 -0.0345,-0.11483 -0.0695,-0.255179 z m 6.10574,-6.454513 -0.39234,-0.39924 0.14375,-0.117734 c 0.23523,-0.192648 0.99061,-0.540763 1.4075,-0.648639 0.51139,-0.132329 1.25958,-0.174183 1.77263,-0.09916 0.67169,0.09821 1.53975,0.442348 1.94639,0.771623 l 0.11372,0.09209 -0.39574,0.401632 -0.39574,0.401633 -0.20828,-0.121205 c -0.98258,-0.5718 -2.34546,-0.583312 -3.33779,-0.02819 l -0.26177,0.146441 z m 1.1741,-5.76655 c 0.0351,-0.01404 0.077,-0.01232 0.0932,0.0038 0.0162,0.01615 -0.0126,0.02764 -0.0638,0.02553 -0.0566,-0.0024 -0.0682,-0.01384 -0.0294,-0.02936 z"
         style="fill:#000000;stroke-width:1;stroke-miterlimit:4;stroke-dasharray:none" />
    </g>
  </g>
</svg>
